Coordinates
version=1
nRows=5
nColumns=42
inDegrees=yes

Units are S.I. units (second, meters, Newtons, ...)
If the header above contains a line with 'inDegrees', this indicates whether rotational values are in degrees (yes) or radians (no).

endheader
time	pelvis_tilt	pelvis_list	pelvis_rotation	pelvis_tx	pelvis_ty	pelvis_tz	hip_flexion_r	hip_adduction_r	hip_rotation_r	knee_angle_r	knee_adduction_r	knee_angle_r_beta	ankle_angle_r	subtalar_angle_r	mtp_angle_r	hip_flexion_l	hip_adduction_l	hip_rotation_l	knee_angle_l	knee_adduction_l	knee_angle_l_beta	ankle_angle_l	subtalar_angle_l	mtp_angle_l	lumbar_extension	lumbar_bending	lumbar_rotation	arm_flex_r	arm_add_r	arm_rot_r	elbow_flex_r	pro_sup_r	wrist_flex_r	wrist_dev_r	arm_flex_l	arm_add_l	arm_rot_l	elbow_flex_l	pro_sup_l	wrist_flex_l	wrist_dev_l
      0.30000000	     17.77143657	      3.85905345	      5.58872334	     -1.55583305	      0.89471030	     -0.01834312	      4.76489894	     -0.93136998	    -14.09929367	     29.80784253	     -3.00105370	      0.52024500	     11.23526907	     -2.20684074	     -9.62639203	    -23.99891302	     -2.67601380	      0.82004927	     45.82830212	      4.26555699	      0.79985476	      1.11319371	     -2.74592170	     -9.62639203	    -35.76526931	     -0.94818205	     -4.49241968	      2.57684840	     -5.82771226	    -36.06543224	     24.54077268	     90.00000001	      0.00000000	      0.00000000	      7.74208488	     -8.38240999	    -33.63820242	     34.11206907	     90.00000001	      0.00000000	      0.00000000
      0.31000000	     17.81275573	      3.69334140	      5.43351234	     -1.54740891	      0.89557854	     -0.01717064	      4.11949144	     -0.54561218	    -14.57116301	     29.69404914	     -3.32262215	      0.51825893	     12.00095120	     -1.41055971	     -9.55129368	    -22.69059186	     -2.80460847	      1.49908714	     48.44127156	      4.63649364	      0.84545968	      0.57223953	     -4.48966449	     -9.55129368	    -35.80101815	     -0.82480377	     -4.45380919	      2.97187835	     -5.89390426	    -35.71808945	     24.81582643	     90.00000001	      0.00000000	      0.00000000	      7.40855978	     -8.31770433	    -33.33431097	     34.15601207	     90.00000001	      0.00000000	      0.00000000
      0.32000000	     17.82681822	      3.59775995	      5.34456695	     -1.53933116	      0.89643578	     -0.01620474	      3.52397097	     -0.28814830	    -15.16639999	     29.61300454	     -3.62157719	      0.51684443	     12.77246627	     -0.41321425	     -9.46054616	    -21.28743689	     -2.81355344	      2.43658346	     50.97211716	      5.11108248	      0.88963127	      0.02269247	     -6.91838657	     -9.46054616	    -35.87206409	     -0.72082626	     -4.48236275	      3.34433540	     -5.99448849	    -34.88047957	     25.26439129	     90.00000001	      0.00000000	      0.00000000	      7.21677294	     -8.22618109	    -33.24260483	     33.99905414	     90.00000001	      0.00000000	      0.00000000
      0.33000000	     17.86541502	      3.49952638	      5.28105839	     -1.53137166	      0.89730854	     -0.01529127	      2.84319731	     -0.03783799	    -15.48873278	     29.45275032	     -3.73364087	      0.51404747	     13.52512410	      0.23023009	     -9.38858532	    -19.83713885	     -2.80994904	      3.02000822	     53.42689750	      5.29163686	      0.93247527	     -0.07977810	     -8.83243466	     -9.38858532	    -35.96428649	     -0.61886703	     -4.49856867	      3.71178222	     -6.07561907	    -34.03145635	     25.70367546	     90.00000001	      0.00000000	      0.00000000	      7.07911470	     -8.12128748	    -33.20194066	     33.85766405	     90.00000001	      0.00000000	      0.00000000
      0.34000000	     18.01224012	      3.50372428	      5.22661585	     -1.52355413	      0.89842287	     -0.01457402	      1.96813891	      0.05554371	    -15.56531982	     29.20828136	     -3.63788568	      0.50978068	     14.10383815	      0.54238129	     -9.34818681	    -18.49777253	     -2.63584613	      3.20467702	     55.65384324	      5.06766543	      0.97134281	      0.45725047	    -10.18921181	     -9.34818681	    -36.19953752	     -0.58597628	     -4.56451602	      4.16027121	     -6.12619941	    -33.44956630	     26.11740559	     90.00000001	      0.00000000	      0.00000000	      6.98558248	     -8.01983801	    -33.12520954	     33.71424336	     90.00000001	      0.00000000	      0.00000000
